<svg width="1790" height="365" viewBox="0 0 1790 365" fill="none" xmlns="http://www.w3.org/2000/svg">
<circle cx="236.809" cy="182.373" r="53.5319" stroke="black" stroke-width="29.0343"/>
<circle cx="100.712" cy="318.473" r="46.2734" transform="rotate(-90 100.712 318.473)" fill="black"/>
<circle cx="100.712" cy="46.2734" r="46.2734" fill="black"/>
<circle cx="402.172" cy="183.395" r="46.2734" transform="rotate(135 402.172 183.395)" fill="black"/>
<line x1="402.85" y1="181.462" x2="281.269" y2="181.462" stroke="black" stroke-width="29.0343"/>
<circle cx="65.4404" cy="182.488" r="46.2734" transform="rotate(-45 65.4404 182.488)" fill="black"/>
<line x1="73.2075" y1="347.221" x2="201.522" y2="218.907" stroke="black" stroke-width="29.0343"/>
<line x1="75.5913" y1="27.8442" x2="203.906" y2="156.159" stroke="black" stroke-width="29.0343"/>
<line x1="65.3262" y1="183.278" x2="194.166" y2="183.278" stroke="black" stroke-width="29.0343"/>
<path d="M1245.29 328.097V36H1297.95V207.555L1388.05 108.407H1453.05L1367.07 199.739L1455.93 328.097H1396.69L1332.51 231.006L1297.95 267.621V328.097H1245.29Z" fill="black"/>
<path d="M490.514 328.097L595.833 36H661.246L766.566 328.097H710.615L686.342 258.981H570.737L546.465 328.097H490.514ZM586.371 213.315H670.709L628.745 89.8939L586.371 213.315Z" fill="black"/>
<path d="M846.395 328.099L792.763 328.099L792.763 56.582L846.396 56.582L846.395 328.099Z" fill="black"/>
<path d="M1077.69 108.539V153.792H675.44V108.539H1077.69Z" fill="black"/>
<path d="M1525.19 328.099L1471.55 328.099L1471.55 56.582L1525.19 56.582L1525.19 328.099Z" fill="black"/>
<path d="M1591.12 108.539V153.792H1395.02V108.539H1591.12Z" fill="black"/>
<path d="M901.704 108.538L951.985 108.538L951.985 328.098L901.704 328.098L901.704 108.538Z" fill="black"/>
<path d="M1655.92 328.098L1697.88 282.845L1790 282.845L1790 328.098L1655.92 328.098Z" fill="black"/>
<path d="M1658.43 108.539L1624.07 153.792L1548.65 153.792L1548.65 108.539L1658.43 108.539Z" fill="black"/>
<circle cx="1658.43" cy="218.319" r="87.1536" stroke="black" stroke-width="45.2528"/>
<path d="M1111.21 328.098L1153.17 282.845L1245.29 282.845L1245.29 328.098L1111.21 328.098Z" fill="black"/>
<path d="M1113.72 108.539L1079.36 153.792L1003.94 153.792L1003.94 108.539L1113.72 108.539Z" fill="black"/>
<circle cx="1113.72" cy="218.319" r="87.1536" stroke="black" stroke-width="45.2528"/>
</svg>
